Genre:Comedy/Drama/Romance
Language:English
IMDb:http://www.imdb.com/title/tt1261945/
Source:SWESUB.PAL.DVDR.iNTERNAL-KAFFEREP.Thanks
Sample:YES

General
Complete name : Sex.and.the.City.2.2010.SWESUB.DVDRIP.XVID.FEEL-FREE
Format : AVI
Format/Info : Audio Video Interleave
File size : 1.13 GiB
Duration : 2h 20mn
Overall bit rate : 1 149 Kbps
Video #0
ID : 0
Format : MPEG-4 Visual
Format profile : AdvancedSimple@L5
Format settings, BVOP : Yes
Codec ID : XVID
Codec ID/Hint : XviD
Duration : 2h 20mn
Bit rate : 1 015 Kbps
Width : 640 pixels
Height : 352 pixels
Display aspect ratio : 16:9
Frame rate : 25.000 fps
Resolution : 24 bits
Colorimetry : 4:2:0
Scan type : Progressive
Bits/(Pixel*Frame) : 0.180
Stream size : 1 019 MiB (88%)
Writing library : XviD 1.1.2 (UTC 2006-11-01)
Audio #1
ID : 1
Format : MPEG Audio
Format version : Version 1
Format profile : Layer 3
Codec ID : 55
Codec ID/Hint : MP3
Duration : 2h 20mn
Bit rate mode : Constant
Bit rate : 128 Kbps
Channel(s) : 2 channels
Sampling rate : 44.1 KHz
Resolution : 16 bits
Video delay : 40ms
Stream size : 128 MiB (11%)
Alignment : Split accross interleaves
Interleave, duration : 500 ms (12.50 video frames)
Interleave, preload duration : 500 ms

Plot:
While wrestling with the pressures of life, love, and work in Manhattan, Carrie, Miranda,
and Charlotte join Samantha for a trip to Morocco, where Samantha's ex is filming a new movie

TRAILER:

NOTES:CHECK SAMPLES FOR AUDIO&VIDEO